<svg width="61" height="60" viewBox="0 0 61 60" fill="none" xmlns="http://www.w3.org/2000/svg">
<g clip-path="url(#clip0)">
<mask id="mask0" mask-type="alpha" maskUnits="userSpaceOnUse" x="0" y="1" width="61" height="59">
<path d="M37.9118 1L39.1889 7.79268C40.6227 8.32568 41.9915 8.99254 43.28 9.77807L49.3418 6.62507L58.0827 17.4191L53.5615 22.74C54.023 24.1496 54.3568 25.6171 54.5492 27.1288L60.8518 30.0035L57.7274 43.5369L50.8405 43.2542C50.0062 44.5251 49.0538 45.7115 47.9989 46.798L49.7145 53.44L37.2308 59.5287L33.0741 53.9408C32.3493 54.0071 31.6151 54.041 30.873 54.041C30.0994 54.041 29.3345 54.0042 28.5797 53.9322L24.346 59.4462L11.8623 53.3575L13.6816 46.7303C12.6313 45.64 11.6837 44.4501 10.8545 43.1762L3.97623 43.3535L0.851807 29.8201L7.20867 27.0369C7.4069 25.5263 7.74638 24.0601 8.21342 22.6522L3.78173 17.2729L12.5226 6.47879L18.5465 9.72922C19.8376 8.94906 21.2086 8.28776 22.6443 7.76047L24.0224 1H37.9118ZM30.8518 17C23.6721 17 17.8518 22.8203 17.8518 30C17.8518 37.1797 23.6721 43 30.8518 43C38.0315 43 43.8518 37.1797 43.8518 30C43.8518 22.8203 38.0315 17 30.8518 17Z" fill="white"/>
</mask>
<g mask="url(#mask0)">
<path d="M37.9118 1L39.1889 7.79268C40.6227 8.32568 41.9915 8.99254 43.28 9.77807L49.3418 6.62507L58.0827 17.4191L53.5615 22.74C54.023 24.1496 54.3568 25.6171 54.5492 27.1288L60.8518 30.0035L57.7274 43.5369L50.8405 43.2542C50.0062 44.5251 49.0538 45.7115 47.9989 46.798L49.7145 53.44L37.2308 59.5287L33.0741 53.9408C32.3493 54.0071 31.6151 54.041 30.873 54.041C30.0994 54.041 29.3345 54.0042 28.5797 53.9322L24.346 59.4462L11.8623 53.3575L13.6816 46.7303C12.6313 45.64 11.6837 44.4501 10.8545 43.1762L3.97623 43.3535L0.851807 29.8201L7.20867 27.0369C7.4069 25.5263 7.74638 24.0601 8.21342 22.6522L3.78173 17.2729L12.5226 6.47879L18.5465 9.72922C19.8376 8.94906 21.2086 8.28776 22.6443 7.76047L24.0224 1H37.9118ZM30.8518 17C23.6721 17 17.8518 22.8203 17.8518 30C17.8518 37.1797 23.6721 43 30.8518 43C38.0315 43 43.8518 37.1797 43.8518 30C43.8518 22.8203 38.0315 17 30.8518 17Z" fill="#666666"/>
</g>
</g>
<defs>
<clipPath id="clip0">
<rect width="60" height="60" fill="white" transform="translate(0.851807)"/>
</clipPath>
</defs>
</svg>
