<svg width="61" height="60" viewBox="0 0 61 60" fill="none" xmlns="http://www.w3.org/2000/svg">
<path d="M16.7912 3.75046C16.7912 1.67914 18.4705 0 20.5417 0H57.1013C59.1725 0 60.8518 1.67914 60.8518 3.75046V40.3101C60.8518 42.3814 59.1725 44.0606 57.1013 44.0606H50.1205V18.2321C50.1205 14.0894 46.7628 10.7312 42.6196 10.7312H16.7912V3.75046Z" fill="#666666"/>
<path d="M4.60226 15.9394C2.53109 15.9394 0.851807 17.6186 0.851807 19.6899V56.2495C0.851807 58.3209 2.53109 60 4.60226 60H41.1619C43.2331 60 44.9123 58.3209 44.9123 56.2495V19.6899C44.9123 17.6186 43.2331 15.9394 41.1619 15.9394H4.60226Z" fill="#666666"/>
</svg>
