<svg width="61" height="61" viewBox="0 0 61 61" fill="none" xmlns="http://www.w3.org/2000/svg">
<path fill-rule="evenodd" clip-rule="evenodd" d="M55.6321 30.8192C55.6321 44.7367 44.3497 56.0192 30.4321 56.0192C16.5146 56.0192 5.23213 44.7367 5.23213 30.8192C5.23213 16.9016 16.5146 5.61915 30.4321 5.61915C44.3497 5.61915 55.6321 16.9016 55.6321 30.8192ZM60.4321 30.8192C60.4321 47.3877 47.0007 60.8192 30.4321 60.8192C13.8636 60.8192 0.432129 47.3877 0.432129 30.8192C0.432129 14.2506 13.8636 0.819153 30.4321 0.819153C47.0007 0.819153 60.4321 14.2506 60.4321 30.8192ZM20.1104 24.7394L26.19 30.8191L20.1104 36.8989C19.5246 37.4847 19.5246 38.4344 20.1104 39.0202L22.2317 41.1415C22.8175 41.7273 23.7673 41.7273 24.353 41.1415L30.4327 35.0617L36.5125 41.1415C37.0982 41.7273 38.048 41.7273 38.6338 41.1415L40.7551 39.0202C41.3409 38.4344 41.3409 37.4847 40.7551 36.8989L34.6753 30.819L40.7548 24.7394C41.3405 24.1536 41.3405 23.2039 40.7547 22.6181L38.6334 20.4968C38.0476 19.911 37.0979 19.911 36.5121 20.4968L30.4326 26.5764L24.353 20.4968C23.7672 19.911 22.8175 19.911 22.2317 20.4968L20.1104 22.6181C19.5246 23.2039 19.5246 24.1537 20.1104 24.7394Z" fill="#666666"/>
</svg>
