<svg width="61" height="60" viewBox="0 0 61 60" fill="none" xmlns="http://www.w3.org/2000/svg">
<path fill-rule="evenodd" clip-rule="evenodd" d="M36.209 37.7778L36.2088 45.555L60.8518 45.5556V52.2222L36.2088 52.2221L36.209 60H29.7804V37.7778H36.209ZM22.2804 45.5556V52.2222H0.851807V45.5556H22.2804ZM24.4232 20V42.2222H17.9947L17.9938 34.4441L0.851807 34.4444V27.7778L17.9938 27.777L17.9947 20H24.4232ZM60.8518 27.7778V34.4444H29.7804V27.7778H60.8518ZM54.4232 0L54.4228 7.77778H60.8518V14.4444L54.4228 14.4439L54.4232 22.2222H47.9947V0H54.4232ZM42.6375 7.77778V14.4444H0.851807V7.77778H42.6375Z" fill="#666666"/>
</svg>
