<svg width="61" height="61" viewBox="0 0 61 61" fill="none" xmlns="http://www.w3.org/2000/svg">
<path fill-rule="evenodd" clip-rule="evenodd" d="M30.8518 56.0192C44.7694 56.0192 56.0518 44.7367 56.0518 30.8192C56.0518 16.9016 44.7694 5.61915 30.8518 5.61915C16.9342 5.61915 5.65181 16.9016 5.65181 30.8192C5.65181 44.7367 16.9342 56.0192 30.8518 56.0192ZM30.8518 60.8192C47.4203 60.8192 60.8518 47.3877 60.8518 30.8192C60.8518 14.2506 47.4203 0.819153 30.8518 0.819153C14.2833 0.819153 0.851807 14.2506 0.851807 30.8192C0.851807 47.3877 14.2833 60.8192 30.8518 60.8192ZM30.8515 14.908L42.0728 26.0987C42.6594 26.6837 42.6606 27.6335 42.0757 28.2201L39.9572 30.3443C39.3722 30.9308 38.4225 30.9321 37.8359 30.3472L30.8515 23.3818L23.8672 30.3472C23.2806 30.9321 22.3308 30.9308 21.7459 30.3443L19.6274 28.2201C19.0424 27.6335 19.0437 26.6837 19.6303 26.0987L30.8515 14.908ZM42.0728 39.3099L30.8515 28.1192L19.6303 39.3099C19.0437 39.8949 19.0424 40.8446 19.6274 41.4312L21.7459 43.5554C22.3308 44.142 23.2806 44.1433 23.8672 43.5583L30.8515 36.5929L37.8359 43.5583C38.4225 44.1433 39.3722 44.142 39.9572 43.5554L42.0757 41.4312C42.6606 40.8446 42.6594 39.8949 42.0728 39.3099Z" fill="#666666"/>
</svg>
