<svg width="61" height="60" viewBox="0 0 61 60" fill="none" xmlns="http://www.w3.org/2000/svg">
<path fill-rule="evenodd" clip-rule="evenodd" d="M30.8518 60C47.4203 60 60.8518 46.5685 60.8518 30C60.8518 13.4315 47.4203 0 30.8518 0C14.2833 0 0.851807 13.4315 0.851807 30C0.851807 46.5685 14.2833 60 30.8518 60ZM27.8217 30.9938C27.2884 32.3512 27.0218 34.2096 27.0218 36.5689H33.9543C33.9866 35.3407 34.1563 34.3308 34.4633 33.539C34.7703 32.731 35.3197 31.9472 36.1116 31.1877L38.8991 28.5941C40.0787 27.4468 40.9352 26.3237 41.4685 25.2248C42.0017 24.126 42.2684 22.9059 42.2684 21.5647C42.2684 18.4944 41.2746 16.127 39.2869 14.4626C37.3155 12.7981 34.5279 11.9659 30.9243 11.9659C27.3046 11.9659 24.4928 12.8708 22.489 14.6807C20.4852 16.4744 19.4672 18.9872 19.4349 22.2192H27.6278C27.6601 21.0072 27.9752 20.0457 28.5731 19.3347C29.171 18.6236 29.9548 18.2681 30.9243 18.2681C33.0251 18.2681 34.0755 19.4882 34.0755 21.9283C34.0755 22.9302 33.7603 23.8513 33.1301 24.6916C32.5161 25.5157 31.6111 26.4287 30.4153 27.4306C29.2195 28.4325 28.355 29.6203 27.8217 30.9938ZM27.3127 41.0047C26.4562 41.7642 26.028 42.7418 26.028 43.9377C26.028 45.1335 26.4562 46.1192 27.3127 46.8949C28.1853 47.6544 29.268 48.0341 30.5607 48.0341C31.8535 48.0341 32.9281 47.6544 33.7846 46.8949C34.6572 46.1192 35.0935 45.1335 35.0935 43.9377C35.0935 42.7418 34.6572 41.7642 33.7846 41.0047C32.9281 40.229 31.8535 39.8412 30.5607 39.8412C29.268 39.8412 28.1853 40.229 27.3127 41.0047Z" fill="#666666"/>
</svg>
