<svg width="61" height="61" viewBox="0 0 61 61" fill="none" xmlns="http://www.w3.org/2000/svg">
<path d="M27.0217 37.3879C27.0217 35.0286 27.2884 33.1702 27.8216 31.8128C28.3549 30.4393 29.2194 29.2515 30.4153 28.2496C31.6111 27.2477 32.516 26.3347 33.1301 25.5106C33.7603 24.6703 34.0754 23.7492 34.0754 22.7473C34.0754 20.3072 33.025 19.0872 30.9243 19.0872C29.9547 19.0872 29.171 19.4427 28.5731 20.1537C27.9752 20.8647 27.66 21.8262 27.6277 23.0382H19.4348C19.4671 19.8063 20.4852 17.2934 22.489 15.4997C24.4928 13.6898 27.3045 12.7849 30.9243 12.7849C34.5279 12.7849 37.3154 13.6171 39.2869 15.2816C41.2745 16.946 42.2683 19.3134 42.2683 22.3837C42.2683 23.725 42.0017 24.945 41.4684 26.0439C40.9352 27.1427 40.0787 28.2658 38.899 29.4131L36.1115 32.0068C35.3197 32.7663 34.7703 33.55 34.4632 34.358C34.1562 35.1498 33.9865 36.1598 33.9542 37.3879H27.0217ZM26.0279 44.7567C26.0279 43.5609 26.4562 42.5832 27.3126 41.8237C28.1852 41.048 29.2679 40.6602 30.5607 40.6602C31.8535 40.6602 32.9281 41.048 33.7845 41.8237C34.6572 42.5832 35.0935 43.5609 35.0935 44.7567C35.0935 45.9525 34.6572 46.9382 33.7845 47.7139C32.9281 48.4734 31.8535 48.8531 30.5607 48.8531C29.2679 48.8531 28.1852 48.4734 27.3126 47.7139C26.4562 46.9382 26.0279 45.9525 26.0279 44.7567Z" fill="#666666"/>
<path fill-rule="evenodd" clip-rule="evenodd" d="M30.8518 55.819C44.6589 55.819 55.8518 44.6261 55.8518 30.819C55.8518 17.0119 44.6589 5.81897 30.8518 5.81897C17.0447 5.81897 5.85181 17.0119 5.85181 30.819C5.85181 44.6261 17.0447 55.819 30.8518 55.819ZM30.8518 60.819C47.4203 60.819 60.8518 47.3875 60.8518 30.819C60.8518 14.2504 47.4203 0.81897 30.8518 0.81897C14.2833 0.81897 0.851807 14.2504 0.851807 30.819C0.851807 47.3875 14.2833 60.819 30.8518 60.819Z" fill="#666666"/>
</svg>
